# xmcd
#
# Track frame offsets:
#       150
#       26847
#       38502
#       57459
#       76794
#       94179
#       110487
#       129270
#       150498
#       164847
#       185424
#       216246
#       235536
#       251604
#       268398
#       298008
#
# Disc length: 4207 seconds
#
# Revision: 1
# Processed by: cddbd v1.5.1PL0 Copyright (c) Steve Scherf et al.
# Submitted via: MusiCat 1.1
#
DISCID=df106d10
DTITLE=Coletâneas Variadas - Back to Rock, Pop and New Wave
DYEAR=1900
DGENRE=
TTITLE0=Let's dance - David Bowie
TTITLE1=Boys don't cry - The Cure
TTITLE2=Middle of the night - The pretenders
TTITLE3=Don't you forget about me - Simple Minds
TTITLE4=Suedehead - Morrissey
TTITLE5=Your love - The Outfield
TTITLE6=Mangater - Daryl hall and John Dates
TTITLE7=Dancing with myself - Billy Idol
TTITLE8=Bigmouth strikes again - The Smiths
TTITLE9=Owner ofthe lonely heart - Yes
TTITLE10=Sunday morning - The Bolshoi
TTITLE11=New year's day - U2
TTITLE12=Pivate Idaho - B-52's
TTITLE13=Overkill - Men At Work
TTITLE14=Alive and kicking - Simple Minds
TTITLE15=Minus Zero - Lady Pank
EXTD=\n\n
EXTT0=
EXTT1=
EXTT2=
EXTT3=
EXTT4=
EXTT5=
EXTT6=
EXTT7=
EXTT8=
EXTT9=
EXTT10=
EXTT11=
EXTT12=
EXTT13=
EXTT14=
EXTT15=
PLAYORDER=
